<svg xmlns="http://www.w3.org/2000/svg" width="88" height="87" viewBox="0 0 88 87">
    <g fill="none" fill-rule="evenodd">
        <path fill="#F9CA23" d="M87.02 43.4c0 23.9-19.37 43.3-43.28 43.3C19.84 86.7.47 67.3.47 43.4S19.84.14 43.74.14c23.9 0 43.28 19.38 43.28 43.28"/>
        <path fill="#45271C"
              d="M31.57 45.82c0 3.48-2 6.3-4.44 6.3-2.45 0-4.44-2.82-4.44-6.3 0-3.5 1.9-6.3 4.4-6.3s4.4 2.8 4.4 6.3m33.2 0c0 3.48-2 6.3-4.5 6.3s-4.45-2.82-4.45-6.3c0-3.5 2-6.3 4.46-6.3s4.45 2.8 4.45 6.3m-30.6-4.15c-.5 0-1-.34-1.16-.87-1.3-4.44-5.75-7.83-11.05-8.43-.7-.07-1.18-.68-1.1-1.35.1-.67.7-1.15 1.34-1.07 6.3.7 11.54 4.8 13.13 10.16.2.7-.18 1.4-.83 1.6-.1.1-.2.1-.3.1m19.1 0c-.1 0-.23 0-.34-.03-.63-.2-1-.86-.8-1.5 1.58-5.4 6.84-9.5 13.1-10.2.7-.1 1.3.4 1.35 1.07.08.67-.4 1.28-1.1 1.35-5.3.6-9.7 4-11 8.46-.15.56-.63.9-1.16.9m-.83 24.5c-.5 0-.96-.16-1.34-.5-1.8-1.68-4.26-2.67-6.94-2.77-3-.1-5.8.9-7.75 2.8-.8.73-2.05.7-2.8-.08-.75-.8-.7-2.02.06-2.8 2.8-2.6 6.6-4 10.7-3.82 3.6.13 7 1.5 9.5 3.82.8.7.8 1.95.1 2.75-.4.45-.9.66-1.44.66"/>
    </g>
</svg>
