<svg xmlns="http://www.w3.org/2000/svg" width="88" height="88" viewBox="0 0 88 88">
    <g fill="none" fill-rule="evenodd">
        <path fill="#F9CA23" d="M87.08 43.94c0 23.9-19.38 43.28-43.28 43.28C19.9 87.22.52 67.84.52 43.94.52 20.04 19.9.66 43.8.66c23.9 0 43.28 19.38 43.28 43.28"/>
        <path fill="#45271C"
              d="M66.2 49.1c-.13 0-.26 0-.4-.05l-9.2-2.68c-.54-.17-.94-.65-1-1.22-.05-.58.25-1.13.76-1.4 0 0 7.15-3.7 9.3-4.83.68-.37 1.53-.1 1.9.58.37.7.1 1.54-.58 1.9-1.2.65-3.98 2.1-6.2 3.24l5.82 1.7c.75.22 1.18 1 .96 1.75-.18.6-.75 1-1.36 1m-44.8 0c-.6 0-1.17-.4-1.36-1-.22-.8.2-1.6.96-1.8l5.8-1.7-6.18-3.3c-.7-.4-.95-1.2-.58-1.9.36-.7 1.2-1 1.9-.6l9.3 4.8c.5.26.8.8.76 1.4-.06.56-.46 1.04-1.02 1.2l-9.2 2.7c-.12.03-.25.05-.38.05m50.42-17.8h-.22c-7.04-1.1-10.57-6.8-10.7-7.04-.42-.67-.2-1.53.46-1.94.66-.4 1.53-.2 1.93.47 0 0 3 4.8 8.7 5.7.7.1 1.3.8 1.2 1.6-.1.7-.7 1.2-1.4 1.2m-56.1 0c-.7 0-1.3-.5-1.4-1.2-.2-.8.4-1.5 1.1-1.6 5.74-.9 8.7-5.7 8.73-5.7.4-.7 1.27-.9 1.94-.5.66.4.9 1.3.5 1.9-.18.22-3.7 5.93-10.75 7h-.2M28.55 69c-.54 0-1.07-.2-1.47-.6l-3.8-3.62c-.88-.8-.9-2.14-.1-3 .8-.83 2.2-.86 3-.05L28.6 64l6.15-5.88c.85-.78 2.1-.78 2.95 0L43.8 64l6.14-5.88c.82-.78 2.1-.78 2.93 0L59.03 64l2.35-2.24c.84-.8 2.18-.78 3 .07.8.84.77 2.18-.08 3l-3.8 3.63c-.83.78-2.12.78-2.93 0l-6.16-5.88-6.1 5.88c-.8.78-2.1.78-2.9 0l-6.1-5.88-6.1 5.88c-.4.4-.93.6-1.46.6"/>
    </g>
</svg>
