<svg xmlns="http://www.w3.org/2000/svg" width="87" height="87" viewBox="0 0 87 87">
  <g fill="none" fill-rule="evenodd">
    <path fill="#F9CA23" d="M86.9 43.47c0 23.9-19.37 43.27-43.27 43.27C19.73 86.74.35 67.37.35 43.47.35 19.57 19.72.2 43.63.2 67.53.2 86.9 19.55 86.9 43.46"/>
    <path fill="#45271C" d="M15.75 29.98c-.1 0-.2 0-.3-.03-.77-.17-1.25-.92-1.08-1.68.54-2.4 2.06-4.28 4.28-5.26 2.23-.9 4.88-.8 6.76.2.7.4.9 1.3.6 2-.4.7-1.2.9-1.9.5-1.1-.6-2.8-.6-4.2 0-1 .5-2.2 1.4-2.6 3.3-.13.7-.72 1.1-1.36 1.1m55.6-.1c-.62 0-1.2-.4-1.35-1.1-.44-1.9-1.7-2.8-2.68-3.23-1.4-.62-3.1-.6-4.2.05-.67.4-1.53.16-1.92-.5-.4-.7-.16-1.55.5-1.94 1.9-1.07 4.54-1.15 6.77-.2 2.3 1 3.8 2.87 4.3 5.28.2.8-.3 1.5-1 1.7l-.3.1M28.5 47.3c-.54 0-1.08-.2-1.5-.63l-10.3-10.3c-.84-.85-.84-2.2 0-3 .82-.8 2.16-.8 3 0L29.9 43.6c.83.83.83 2.17 0 3-.4.4-.95.62-1.5.62"/>
    <path fill="#45271C" d="M18.16 47.22c-.55 0-1.1-.2-1.5-.62-.83-.83-.83-2.17 0-3l10.27-10.26c.82-.83 2.16-.83 3 0 .82.82.82 2.16 0 3L19.63 46.6c-.4.4-.94.62-1.5.62m50.97 0c-.55 0-1.1-.2-1.5-.62L57.33 36.33c-.83-.83-.83-2.17 0-3 .83-.82 2.17-.82 3 0L70.58 43.6c.82.83.82 2.17 0 3-.42.4-.96.62-1.5.62"/>
    <path fill="#45271C" d="M58.83 47.22c-.55 0-1.1-.2-1.5-.62-.83-.83-.83-2.17 0-3L67.6 33.34c.82-.83 2.16-.83 3 0 .82.82.82 2.16 0 3L60.3 46.6c-.4.4-.95.62-1.5.62"/>
    <path fill="#FFF" d="M43.63 52.4c-3.3 0-6.26 1.43-8.3 3.66h16.6c-2.05-2.23-5-3.65-8.3-3.65"/>
    <path fill="#45271C" d="M50.34 72.02c2.68-2 4.42-5.14 4.42-8.7 0-2.8-1.08-5.33-2.84-7.26h-16.6c-1.75 1.93-2.83 4.47-2.83 7.27 0 3.55 1.7 6.7 4.4 8.7 1.9-1.12 4.2-1.76 6.7-1.76s4.8.64 6.7 1.75"/>
    <path fill="#BB3332" d="M50.34 72.02c-1.93-1.1-4.23-1.75-6.72-1.75-2.47 0-4.78.64-6.7 1.75 1.86 1.4 4.18 2.22 6.7 2.22 2.53 0 4.85-.83 6.72-2.22"/>
  </g>
</svg>
