<svg xmlns="http://www.w3.org/2000/svg" width="87" height="87" viewBox="0 0 87 87">
  <g fill="none" fill-rule="evenodd">
    <path fill="#F9CA23" d="M86.85 43.37c0 23.9-19.38 43.28-43.28 43.28C19.67 86.65.3 67.27.3 43.37.3 19.47 19.66.1 43.56.1s43.28 19.37 43.28 43.27"/>
    <path fill="#45271C" d="M66.55 28.4c0 1.34-.28 2.58-.76 3.62-.4.66-1.2.95-1.8.5-.7-.46-1.4-.72-2.2-.72s-1.5.26-2.2.73c-.6.44-1.43.15-1.74-.52-.5-1-.76-2.2-.76-3.6 0-3.6 2.1-6.5 4.66-6.5 2.6 0 4.66 3 4.66 6.6m-36.7 0c0 1.4-.26 2.6-.74 3.6-.3.7-1.17 1-1.76.5-.6-.4-1.35-.7-2.1-.7s-1.5.3-2.15.8c-.6.44-1.45.15-1.76-.52-.5-1-.75-2.24-.75-3.6 0-3.6 2.07-6.56 4.6-6.56 2.6 0 4.67 2.95 4.67 6.58M21.5 45.4c-1.3 0-2.15 1.25-1.8 2.5 2.3 8.2 12.1 14.4 23.87 14.4 11.83 0 21.67-6.3 23.86-14.62.3-1.17-.65-2.3-1.87-2.3h-44"/>
    <path fill="#FFF" d="M43.55 48.55c6.43 0 12.3-1.22 17-3.24h-34c4.68 2.1 10.57 3.3 17 3.3"/>
    <path fill="#BB3332" d="M43.96 57.75c-3.4 0-6.48 1.32-8.65 3.42 2.6.7 5.4 1.08 8.3 1.08 3.2 0 6.1-.46 8.9-1.26-2.1-2-5.1-3.3-8.4-3.3"/>
  </g>
</svg>
