<svg xmlns="http://www.w3.org/2000/svg" width="87" height="88" viewBox="0 0 87 88">
    <g fill="none" fill-rule="evenodd">
        <path fill="#F9CA23" d="M86.8 44.07c0 23.9-19.4 43.28-43.3 43.28S.24 67.97.24 44.07C.24 20.17 19.6.8 43.5.8s43.3 19.37 43.3 43.27"/>
        <path fill="#45271C" d="M63.26 57.5h-39.5c-1.17 0-2.1-.95-2.1-2.12 0-1.17.93-2.12 2.1-2.12h39.5c1.17 0 2.12.95 2.12 2.12 0 1.17-.95 2.12-2.12 2.12m2.9-20.8c0 2.53-2.05 4.57-4.57 4.57-2.58 0-4.6-2.04-4.6-4.57 0-2.52 2.02-4.56 4.55-4.56 2.5 0 4.55 2.04 4.55 4.56m-36.1 0c0 2.53-2.04 4.57-4.57 4.57-2.52 0-4.57-2.04-4.57-4.57 0-2.52 2.05-4.56 4.57-4.56 2.53 0 4.57 2.04 4.57 4.56"/>
    </g>
</svg>
