<svg xmlns="http://www.w3.org/2000/svg" width="87" height="87" viewBox="0 0 87 87">
  <g fill="none" fill-rule="evenodd">
    <path fill="#F9CA23" d="M43.63 86.65C19.73 86.65.35 67.28.35 43.37.35 19.47 19.72.1 43.63.1 67.53.1 86.9 19.47 86.9 43.37c0 23.9-19.37 43.28-43.27 43.28z"/>
    <path fill="#45271C" d="M30.48 44.57c0 3.48-2 6.3-4.45 6.3s-4.44-2.82-4.44-6.3 1.9-6.3 4.4-6.3c2.4 0 4.4 2.82 4.4 6.3m36.03 0c0 3.48-2 6.3-4.44 6.3-2.46 0-4.45-2.82-4.45-6.3s2-6.3 4.45-6.3 4.46 2.82 4.46 6.3M57 68.47c1.13.23 1.9-1.44 1.15-2.54C54.87 61.1 49.78 58 44.05 58c-5.72 0-10.8 3.1-14.1 7.93-.74 1.1.04 2.77 1.16 2.54 3.9-.8 8.3-1.24 13-1.24s9.1.45 13 1.24M70.2 33.3l-.2-.03c-7.05-1.08-10.58-6.8-10.7-7.03-.44-.67-.2-1.54.44-1.94.67-.4 1.53-.2 1.94.47.06.1 3.06 4.84 8.74 5.7.8.14 1.3.86 1.2 1.62-.1.7-.7 1.2-1.38 1.2m-52.2 0c-.7 0-1.3-.5-1.4-1.2-.1-.8.4-1.5 1.2-1.66 5.73-.88 8.7-5.66 8.72-5.7.4-.67 1.3-.9 2-.48.67.4.9 1.26.48 1.93-.15.24-3.68 5.95-10.7 7.03l-.23.02"/>
    <path fill="#64B9DC" d="M26.03 64.65c0 3.4-2.74 6.14-6.13 6.14-3.4 0-6.13-2.8-6.13-6.2 0-2.6 3.58-8.78 5.27-11.5.4-.68 1.32-.68 1.72 0 1.7 2.72 5.27 8.9 5.27 11.5"/>
  </g>
</svg>
