<svg xmlns="http://www.w3.org/2000/svg" width="88" height="88" viewBox="0 0 88 88">
  <g fill="none" fill-rule="evenodd">
    <path fill="#F9CA23" d="M87.15 43.76c0 23.9-19.37 43.28-43.28 43.28C19.97 87.04.6 67.66.6 43.76.6 19.86 19.97.48 43.87.48c23.9 0 43.28 19.38 43.28 43.28"/>
    <path fill="#FFF" d="M44.35 51.25c-3.3 0-6.25 1.4-8.3 3.64h16.6c-2.04-2.3-5-3.7-8.3-3.7"/>
    <path fill="#45271C" d="M51.07 70.85c2.68-2 4.42-5.14 4.42-8.7 0-2.8-1.1-5.33-2.9-7.26H36c-1.76 1.9-2.84 4.4-2.84 7.2 0 3.5 1.74 6.7 4.42 8.7 1.93-1.1 4.23-1.8 6.7-1.8 2.5 0 4.8.6 6.73 1.7"/>
    <path fill="#BB3332" d="M51.07 70.85c-1.93-1.1-4.23-1.75-6.72-1.75-2.48 0-4.78.65-6.7 1.75 1.86 1.4 4.18 2.22 6.7 2.22 2.53 0 4.85-.83 6.72-2.22"/>
    <path fill="#45271C" d="M17.73 25.76c-.34 0-.68-.14-.92-.42-.4-.52-.3-1.3.2-1.73 2.8-2.3 6.4-3.8 10-4.2.7 0 1.3.5 1.3 1.1.1.7-.4 1.3-1.1 1.4-3.1.3-6.2 1.6-8.6 3.7-.2.2-.5.3-.8.3m52.3 0c-.3 0-.5-.1-.8-.3-2.4-2.02-5.5-3.32-8.6-3.6-.65-.06-1.14-.65-1.1-1.32.08-.65.67-1.13 1.3-1.1 3.67.35 7.2 1.85 10 4.2.5.48.6 1.25.16 1.76-.24.3-.6.4-.92.4"/>
    <path fill="#FFF" d="M71.45 37.1c0 5.23-4.1 9.46-9.14 9.46-5 0-9.1-4.23-9.1-9.46s4.1-9.46 9.2-9.46 9.2 4.23 9.2 9.46"/>
    <path fill="#45271C" d="M66.22 37.1c0 2.23-1.75 4.04-3.9 4.04-2.16 0-3.9-1.8-3.9-4.04 0-2.23 1.74-4.04 3.9-4.04 2.15 0 3.9 1.8 3.9 4.04"/>
    <path fill="#FFF" d="M34.58 37.1c0 5.23-4.1 9.46-9.14 9.46-5.05 0-9.14-4.23-9.14-9.46s4.1-9.46 9.14-9.46c5.04 0 9.14 4.23 9.14 9.46"/>
    <path fill="#45271C" d="M29.34 37.1c0 2.23-1.75 4.04-3.9 4.04-2.16 0-3.9-1.8-3.9-4.04 0-2.23 1.74-4.04 3.9-4.04 2.15 0 3.9 1.8 3.9 4.04"/>
  </g>
</svg>
